<mxfile host="65bd71144e">
    <diagram id="SFpEsOZxjrD9UnM-bh4j" name="Page-1">
        <mxGraphModel dx="1086" dy="568" grid="1" gridSize="10" guides="1" tooltips="1" connect="1" arrows="1" fold="1" page="1" pageScale="1" pageWidth="850" pageHeight="1100" math="0" shadow="0">
            <root>
                <mxCell id="0"/>
                <mxCell id="1" parent="0"/>
                <mxCell id="2" value="Fred" style="shape=umlActor;verticalLabelPosition=bottom;verticalAlign=top;html=1;sketch=1;curveFitting=1;jiggle=2;" parent="1" vertex="1">
                    <mxGeometry x="80" y="160" width="30" height="60" as="geometry"/>
                </mxCell>
                <mxCell id="3" value="Lifeline1" style="shape=umlLifeline;perimeter=lifelinePerimeter;whiteSpace=wrap;html=1;container=1;collapsible=0;recursiveResize=0;outlineConnect=0;sketch=1;" parent="1" vertex="1">
                    <mxGeometry x="205" y="90" width="100" height="300" as="geometry"/>
                </mxCell>
                <mxCell id="4" value="Lifeline2" style="shape=umlLifeline;perimeter=lifelinePerimeter;whiteSpace=wrap;html=1;container=1;collapsible=0;recursiveResize=0;outlineConnect=0;lifelineDashed=0;sketch=1;" parent="1" vertex="1">
                    <mxGeometry x="325" y="90" width="100" height="300" as="geometry"/>
                </mxCell>
            </root>
        </mxGraphModel>
    </diagram>
</mxfile>